{
  "accessors": [
    {
      "bufferView": 2,
      "componentType": 5126,
      "count": 5734,
      "max": [
        9.934991836547852,
        9.934991836547852,
        1.7987102270126343
      ],
      "min": [
        -9.934991836547852,
        -9.934991836547852,
        -2.9512534141540527
      ],
      "type": "VEC3"
    },
    {
      "bufferView": 2,
      "byteOffset": 68808,
      "componentType": 5126,
      "count": 5734,
      "max": [
        1.0,
        1.0,
        0.9999539256095886
      ],
      "min": [
        -1.0,
        -1.0,
        -0.9999539256095886
      ],
      "type": "VEC3"
    },
    {
      "bufferView": 1,
      "componentType": 5126,
      "count": 5734,
      "max": [
        0.6922800540924072,
        0.99853515625
      ],
      "min": [
        0.0,
        0.0
      ],
      "type": "VEC2"
    },
    {
      "bufferView": 0,
      "componentType": 5125,
      "count": 28080,
      "type": "SCALAR"
    }
  ],
  "asset": {
    "extras": {
      "author": "Busanello (https://sketchfab.com/busanello)",
      "license": "CC-BY-4.0 (http://creativecommons.org/licenses/by/4.0/)",
      "source": "https://sketchfab.com/3d-models/simple-ring-03c72cc33de04517bcdd5e0cf21ec752",
      "title": "Simple Ring"
    },
    "generator": "Sketchfab-12.66.0",
    "version": "2.0"
  },
  "bufferViews": [
    {
      "buffer": 0,
      "byteLength": 112320,
      "name": "floatBufferViews",
      "target": 34963
    },
    {
      "buffer": 0,
      "byteLength": 45872,
      "byteOffset": 112320,
      "byteStride": 8,
      "name": "floatBufferViews",
      "target": 34962
    },
    {
      "buffer": 0,
      "byteLength": 137616,
      "byteOffset": 158192,
      "byteStride": 12,
      "name": "floatBufferViews",
      "target": 34962
    }
  ],
  "buffers": [
    {
      "byteLength": 295808,
      "uri": "scene.bin"
    }
  ],
  "materials": [
    {
      "doubleSided": true,
      "name": "material1",
      "pbrMetallicRoughness": {
        "metallicFactor": 0.9752937214876649,
        "roughnessFactor": 0.0875136420476359
      }
    }
  ],
  "meshes": [
    {
      "name": "Object_0",
      "primitives": [
        {
          "attributes": {
            "NORMAL": 1,
            "POSITION": 0,
            "TEXCOORD_0": 2
          },
          "indices": 3,
          "material": 0,
          "mode": 4
        }
      ]
    }
  ],
  "nodes": [
    {
      "children": [
        1
      ],
      "matrix": [
        0.0,
        -1.0,
        -2.220446049250313e-16,
        0.0,
        0.0,
        2.220446049250313e-16,
        -1.0,
        0.0,
        1.0,
        0.0,
        0.0,
        0.0,
        0.5762715935707092,
        -0.5762715935707092,
        -1.2795799832392634e-16,
        1.0
      ],
      "name": "Sketchfab_model"
    },
    {
      "children": [
        2
      ],
      "name": "1.obj.cleaner.materialmerger.gles"
    },
    {
      "mesh": 0,
      "name": "Object_2"
    }
  ],
  "scene": 0,
  "scenes": [
    {
      "name": "Sketchfab_Scene",
      "nodes": [
        0
      ]
    }
  ]
}
