<svg width="35" height="37" viewBox="0 0 35 37" fill="none" xmlns="http://www.w3.org/2000/svg">
<path d="M10.9375 8.47919C10.9375 6.63925 11.6289 4.87467 12.8596 3.57363C14.0903 2.2726 15.7595 1.54169 17.5 1.54169C19.2405 1.54169 20.9097 2.2726 22.1404 3.57363C23.3711 4.87467 24.0625 6.63925 24.0625 8.47919V10.7917H30.625L33.5416 35.4584H1.45837L4.375 10.7917H10.9375V8.47919ZM10.9375 13.875H6.5625L4.37504 32.375H30.625L28.4375 13.875H24.0625L24.0625 16.7381H21.1458L21.1458 13.875H13.8542L13.8542 16.7381H10.9375L10.9375 13.875ZM21.1458 10.7917V8.47919C21.1458 7.457 20.7617 6.47668 20.078 5.75388C19.3943 5.03108 18.4669 4.62502 17.5 4.62502C16.5331 4.62502 15.6057 5.03108 14.922 5.75388C14.2383 6.47668 13.8542 7.457 13.8542 8.47919V10.7917H21.1458Z" fill="white"/>
</svg>
