<svg width="200" height="200" viewBox="0 0 200 200" fill="none" xmlns="http://www.w3.org/2000/svg">
<circle cx="100" cy="100" r="100" fill="black"/>
<path d="M71.8817 120.454C71.9921 120.592 72.121 120.707 72.2628 120.8L71.9824 121.088H73.1684H101.037L118.74 135.135L118.742 135.137C119.475 135.711 120.534 135.595 121.114 134.856L121.126 134.841L121.137 134.824C121.199 134.731 121.252 134.645 121.304 134.541L129.172 120.2C129.172 120.2 129.172 120.2 129.173 120.199C129.465 119.673 129.453 119.056 129.174 118.569L113.222 87.438C113.2 87.3793 113.174 87.3283 113.14 87.2746L101.939 65.4237C101.939 65.4229 101.939 65.4221 101.938 65.4214C101.516 64.5822 100.496 64.2654 99.6785 64.6839L99.6785 64.6839L99.6727 64.687C99.3385 64.8635 99.1013 65.1212 98.9458 65.4117L98.9458 65.4117L98.9417 65.4197L71.7171 118.557C71.3876 119.147 71.4261 119.898 71.8817 120.454ZM78.3178 113.053L100.44 69.8834L109.565 87.6873L86.2543 106.612C86.1945 106.652 86.1478 106.696 86.1228 106.721L78.3178 113.053ZM102.614 118.01L89.9397 107.955L111.149 90.7331L125.825 119.361L119.304 131.25L102.775 118.136C102.713 118.078 102.654 118.037 102.614 118.01ZM96.8024 117.705H77.9305L87.2565 110.123L96.8024 117.705Z" fill="white" stroke="white"/>
</svg>
