<svg width="40" height="40" viewBox="0 0 40 40" fill="none" xmlns="http://www.w3.org/2000/svg">
<path d="M15.8334 10.8333V15.8333H10.8334V10.8333H15.8334ZM18.3334 8.33334H8.33337V18.3333H18.3334V8.33334ZM15.8334 24.1667V29.1667H10.8334V24.1667H15.8334ZM18.3334 21.6667H8.33337V31.6667H18.3334V21.6667ZM29.1667 10.8333V15.8333H24.1667V10.8333H29.1667ZM31.6667 8.33334H21.6667V18.3333H31.6667V8.33334ZM21.6667 21.6667H24.1667V24.1667H21.6667V21.6667ZM24.1667 24.1667H26.6667V26.6667H24.1667V24.1667ZM26.6667 21.6667H29.1667V24.1667H26.6667V21.6667ZM21.6667 26.6667H24.1667V29.1667H21.6667V26.6667ZM24.1667 29.1667H26.6667V31.6667H24.1667V29.1667ZM26.6667 26.6667H29.1667V29.1667H26.6667V26.6667ZM29.1667 24.1667H31.6667V26.6667H29.1667V24.1667ZM29.1667 29.1667H31.6667V31.6667H29.1667V29.1667Z" fill="white"/>
</svg>
