<svg width="31" height="31" viewBox="0 0 31 31" fill="none" xmlns="http://www.w3.org/2000/svg">
<path d="M12.375 8.625V12.375H8.625V8.625H12.375ZM14.25 6.75H6.75V14.25H14.25V6.75ZM12.375 18.625V22.375H8.625V18.625H12.375ZM14.25 16.75H6.75V24.25H14.25V16.75ZM22.375 8.625V12.375H18.625V8.625H22.375ZM24.25 6.75H16.75V14.25H24.25V6.75ZM16.75 16.75H18.625V18.625H16.75V16.75ZM18.625 18.625H20.5V20.5H18.625V18.625ZM20.5 16.75H22.375V18.625H20.5V16.75ZM16.75 20.5H18.625V22.375H16.75V20.5ZM18.625 22.375H20.5V24.25H18.625V22.375ZM20.5 20.5H22.375V22.375H20.5V20.5ZM22.375 18.625H24.25V20.5H22.375V18.625ZM22.375 22.375H24.25V24.25H22.375V22.375Z" fill="black"/>
</svg>
