<svg width="39" height="47" viewBox="0 0 39 47" fill="none" xmlns="http://www.w3.org/2000/svg">
<path d="M1.75993 36.726C1.53447 36.726 1.31792 36.6268 1.17356 36.4466C0.966029 36.1944 0.947982 35.8521 1.10137 35.5818L18.6057 1.41634C18.6781 1.28118 18.7862 1.16406 18.9397 1.08296C19.3095 0.893752 19.7698 1.03793 19.9593 1.41634L27.1685 15.4808C27.1867 15.5078 27.1955 15.5258 27.2046 15.5528L37.4726 35.5908C37.5989 35.807 37.608 36.0864 37.4726 36.3296L32.4108 45.5556C32.3838 45.6097 32.3566 45.6548 32.3206 45.7089C32.0589 46.0422 31.5807 46.0963 31.2468 45.835L19.7789 36.7351H1.75109L1.75993 36.726ZM4.08803 33.0952L10.2957 28.0585C10.3137 28.0404 10.3318 28.0225 10.3499 28.0135L25.5535 15.67L19.2825 3.43454L4.07896 33.104L4.08803 33.0952ZM26.2661 17.0485L12.0191 28.6171L20.4915 35.3386C20.5187 35.3565 20.5457 35.3746 20.5729 35.4015L31.5084 44.0781L35.9658 35.9513L26.2752 17.0485H26.2661ZM10.8009 29.5992L3.90755 35.2034H17.8659L10.81 29.5992H10.8009Z" fill="black" fill-opacity="0.7"/>
<path d="M0.901909 36.6673C0.967247 36.7485 1.04243 36.8184 1.1247 36.8762L0.921006 37.0851H1.75109H19.6569L31.0292 46.1092L31.0311 46.1107C31.5145 46.4888 32.2129 46.4128 32.5959 45.925L32.6043 45.9143L32.6119 45.9029C32.6521 45.8426 32.6865 45.7862 32.7208 45.7183L37.7784 36.4998C37.7786 36.4995 37.7788 36.4991 37.779 36.4988C37.9717 36.1518 37.9639 35.7454 37.7801 35.4235L27.5261 15.4128C27.5112 15.3742 27.494 15.3404 27.4719 15.3052L20.2723 1.25959C20.272 1.25904 20.2717 1.25849 20.2714 1.25794C19.9929 0.704167 19.32 0.495253 18.7803 0.771375L18.7803 0.771348L18.7762 0.773493C18.556 0.889862 18.3996 1.05983 18.2971 1.2512L18.2971 1.25117L18.2942 1.25675L0.792954 35.4162C0.575941 35.8051 0.601291 36.3006 0.901909 36.6673ZM5.14869 31.7839L19.2826 4.20196L25.1126 15.5771L10.1464 27.7279C10.1071 27.7541 10.0763 27.7828 10.0597 27.7993L5.14869 31.7839ZM20.697 35.0549L12.5783 28.6139L26.158 17.5871L35.5696 35.9457L31.401 43.5461L20.8028 35.1372C20.7621 35.0994 20.7235 35.0725 20.697 35.0549ZM16.8625 34.8534H4.89289L10.8079 30.0446L16.8625 34.8534Z" stroke="black" stroke-opacity="0.7" stroke-width="0.7"/>
</svg>
