<svg width="60" height="72" viewBox="0 0 60 72" fill="none" xmlns="http://www.w3.org/2000/svg">
<path d="M1.88172 56.4542C1.99209 56.5915 2.12104 56.7074 2.2628 56.8004L1.98243 57.0879H3.16837H31.0373L48.7397 71.135L48.7424 71.1371C49.4754 71.7105 50.5339 71.595 51.1142 70.8559L51.1262 70.8406L51.137 70.8243C51.199 70.7313 51.2517 70.6451 51.3041 70.5411L59.1721 56.2003C59.1723 56.2 59.1725 56.1996 59.1727 56.1993C59.4654 55.6725 59.4531 55.0564 59.1745 54.5688L43.2221 23.438C43.1997 23.3793 43.1738 23.3283 43.1398 23.2746L31.9393 1.42371C31.939 1.42293 31.9386 1.42214 31.9382 1.42136C31.5162 0.582199 30.4964 0.26544 29.6785 0.683928L29.6785 0.68389L29.6727 0.686953C29.3385 0.863491 29.1013 1.12117 28.9458 1.41172L28.9458 1.41168L28.9417 1.41965L1.71712 54.5572C1.38764 55.1471 1.42607 55.8983 1.88172 56.4542ZM8.31785 49.0533L30.4395 5.88337L39.5645 23.6873L16.2543 42.6124C16.1945 42.652 16.1478 42.6959 16.1228 42.7208L8.31785 49.0533ZM32.6136 54.0102L19.9397 43.9554L41.1492 26.7331L55.8252 55.3607L49.3041 67.2504L32.7754 54.1361C32.7134 54.0783 32.6544 54.0373 32.6136 54.0102ZM26.8024 53.7053H7.93049L17.2565 46.1234L26.8024 53.7053Z" fill="white" stroke="white"/>
</svg>
