<svg width="18" height="22" viewBox="0 0 18 22" fill="none" xmlns="http://www.w3.org/2000/svg">
<path d="M0.845397 16.8486C0.874808 16.8852 0.90877 16.9165 0.945984 16.9423L0.856066 17.0322H1.21819H9.16661L14.2152 21.0441L14.216 21.0447C14.4283 21.2111 14.735 21.1776 14.9031 20.9631L14.9035 20.9634L14.9099 20.9538C14.9279 20.9268 14.9429 20.902 14.9579 20.8723L17.2027 16.7749C17.2027 16.7748 17.2028 16.7746 17.2029 16.7745C17.2875 16.622 17.2841 16.4435 17.2034 16.302L12.6524 7.40803C12.6458 7.3907 12.6381 7.37591 12.6286 7.3608L9.43321 1.11795C9.43309 1.11772 9.43298 1.11749 9.43286 1.11726C9.31071 0.873893 9.01527 0.781924 8.77816 0.903366L8.77816 0.903354L8.77636 0.904304C8.67974 0.955458 8.61098 1.03017 8.56603 1.11445L8.56601 1.11444L8.56485 1.11672L0.797666 16.2987C0.702381 16.4697 0.713504 16.6874 0.845397 16.8486ZM2.70965 14.7021L8.99872 2.41129L11.5929 7.4802L4.94693 12.8838C4.92966 12.8953 4.91607 12.9081 4.90916 12.9149L2.70965 14.7021ZM9.6237 16.1402L6.01461 13.2729L12.0518 8.36361L16.2331 16.5315L14.3786 19.9176L9.67016 16.1765C9.65207 16.1596 9.63478 16.1476 9.6237 16.1402ZM7.94047 16.0515H2.59707L5.23766 13.9017L7.94047 16.0515Z" fill="white" stroke="white" stroke-width="0.3"/>
</svg>
