<svg width="100" height="100" viewBox="0 0 100 100" fill="none" xmlns="http://www.w3.org/2000/svg">
<rect width="100" height="100" rx="50" fill="url(#paint0_linear_1093_143)"/>
<path d="M31.9019 62.6673C31.9672 62.7485 32.0424 62.8184 32.1247 62.8762L31.921 63.0851H32.7511H50.6569L62.0292 72.1092L62.0311 72.1107C62.5145 72.4888 63.2129 72.4128 63.5959 71.925L63.6043 71.9143L63.6119 71.9029C63.6521 71.8426 63.6865 71.7862 63.7208 71.7183L68.7784 62.4998C68.7786 62.4995 68.7788 62.4991 68.779 62.4988C68.9717 62.1518 68.9639 61.7454 68.7801 61.4235L58.5261 41.4128C58.5112 41.3742 58.494 41.3404 58.4719 41.3052L51.2723 27.2596C51.272 27.259 51.2717 27.2585 51.2714 27.2579C50.9929 26.7042 50.32 26.4953 49.7803 26.7714L49.7803 26.7713L49.7762 26.7735C49.556 26.8899 49.3996 27.0598 49.2971 27.2512L49.2971 27.2512L49.2942 27.2567L31.793 61.4162C31.5759 61.8051 31.6013 62.3006 31.9019 62.6673ZM36.1487 57.7839L50.2826 30.202L56.1126 41.5771L41.1464 53.7279C41.1071 53.7541 41.0763 53.7828 41.0597 53.7993L36.1487 57.7839ZM51.697 61.0549L43.5783 54.6139L57.158 43.5871L66.5696 61.9457L62.401 69.5461L51.8028 61.1372C51.7621 61.0994 51.7235 61.0725 51.697 61.0549ZM47.8625 60.8534H35.8929L41.8079 56.0446L47.8625 60.8534Z" fill="white" stroke="white" stroke-width="0.7"/>
<defs>
<linearGradient id="paint0_linear_1093_143" x1="188.5" y1="193.5" x2="-32.5" y2="-48" gradientUnits="userSpaceOnUse">
<stop stop-color="#6989AE"/>
<stop offset="1" stop-color="#2C3948"/>
</linearGradient>
</defs>
</svg>
