<svg width="86" height="138" viewBox="0 0 86 138" fill="none" xmlns="http://www.w3.org/2000/svg">
<path d="M46.359 66.856V73H4.695C5.783 71.976 6.327 70.728 6.327 69.256V9.544C6.327 8.072 5.783 6.824 4.695 5.8H46.359V11.944C38.551 8.296 30.295 6.472 21.591 6.472H13.719V37.096H20.343C21.367 37.096 22.231 37.032 22.935 36.904C26.135 36.456 29.175 35.56 32.055 34.216V40.648C29.175 39.304 26.135 38.408 22.935 37.96C22.231 37.832 21.367 37.768 20.343 37.768H13.719V72.328H21.591C30.295 72.328 38.551 70.504 46.359 66.856Z" fill="white"/>
<path d="M84.359 112.856V119H42.695C43.783 117.976 44.327 116.728 44.327 115.256V55.544C44.327 54.072 43.783 52.824 42.695 51.8H84.359V57.944C76.551 54.296 68.295 52.472 59.591 52.472H51.719V83.096H58.343C59.367 83.096 60.231 83.032 60.935 82.904C64.135 82.456 67.175 81.56 70.055 80.216V86.648C67.175 85.304 64.135 84.408 60.935 83.96C60.231 83.832 59.367 83.768 58.343 83.768H51.719V118.328H59.591C68.295 118.328 76.551 116.504 84.359 112.856Z" fill="white"/>
</svg>
